<svg height="512" viewBox="0 0 58 60" width="512" 
    xmlns="http://www.w3.org/2000/svg">
    <g id="005---Moth" fill="none" fill-rule="evenodd" transform="translate(-1)">
        <path id="Shape" d="m59 43c-.44 17-13 16-16 16-4.32 0-7.42-2.21-9.85-5.81h-6.29c-2.41 3.57-5.5 5.81-9.86 5.81-3 0-15.56 1-16-16-.36-13.84 12.71-22.89 20.8-27.15h16.39c8.09 4.26 21.17 13.31 20.81 27.15z" fill="#df4d60" fill-rule="nonzero"/>
        <path id="Shape" d="m33.84 54.18c-.24-.32-.47-.65-.7-1h-6.28c-.23.34-.46.67-.7 1-3.52-9.18-5.24-28.62-3.44-37.18l1.64-1.12h11.28l1.64 1.12c1.81 8.57.08 28-3.44 37.18z" fill="#802d40" fill-rule="nonzero"/>
        <path id="Shape" d="m29.59 10h.82" stroke="#000" stroke-linecap="round" stroke-linejoin="round" stroke-width="2"/>
        <g fill-rule="nonzero">
            <path id="Shape" d="m35.46 17c1.82 11.63-1.18 42-5.46 42s-7.27-30.44-5.46-42l5.46-5z" fill="#35495e"/>
            <path id="Shape" d="m25 9c-.5522847 0-1-.44771525-1-1 0-.24-.08-6-5-6-4.58 0-3.73 4-2 4 .5522847 0 1 .44771525 1 1 0 2-4.39.94-4.39-2.75 0-2.25 1.76-4.25 5.39-4.25 5.54 0 7 5.23 7 8 0 .55228475-.4477153 1-1 1z" fill="#35495e"/>
            <path id="Shape" d="m35 9c-.5522847 0-1-.44771525-1-1 0-2.77 1.46-8 7-8 3.63 0 5.39 2 5.39 4.25.0907737 1.96856811-1.422285 3.64230568-3.39 3.75-.5522847 0-1-.44771525-1-1s.4477153-1 1-1c1.72 0 2.61-4-2-4-4.92 0-5 5.76-5 6 0 .55228475-.4477153 1-1 1z" fill="#35495e"/>
            <path id="Shape" d="m27.55 25.45c-.4761403-.2553377-.6633673-.842705-.4228266-1.3264892.2405408-.4837841.8218583-.689026 1.3128266-.4635108.9908032.436097 2.1191968.436097 3.11 0 .4943143-.2454836 1.0940469-.0440809 1.34.45.2469243.4916536.050313 1.0904244-.44 1.34-1.5515949.7307697-3.3484051.7307697-4.9 0z" fill="#2c3e50"/>
            <path id="Shape" d="m27.55 29.45c-.4761403-.2553377-.6633673-.842705-.4228266-1.3264892.2405408-.4837841.8218583-.689026 1.3128266-.4635108.9908032.436097 2.1191968.436097 3.11 0 .4943143-.2454836 1.0940469-.0440809 1.34.45.2469243.4916536.050313 1.0904244-.44 1.34-1.5515949.7307697-3.3484051.7307697-4.9 0z" fill="#2c3e50"/>
            <path id="Shape" d="m27.55 33.45c-.4761403-.2553377-.6633673-.842705-.4228266-1.3264892.2405408-.4837841.8218583-.689026 1.3128266-.4635108.9908032.436097 2.1191968.436097 3.11 0 .4943143-.2454836 1.0940469-.0440809 1.34.45.2469243.4916536.050313 1.0904244-.44 1.34-1.5515949.7307697-3.3484051.7307697-4.9 0z" fill="#2c3e50"/>
            <path id="Shape" d="m27.55 37.45c-.4761403-.2553377-.6633673-.842705-.4228266-1.3264892.2405408-.4837841.8218583-.689026 1.3128266-.4635108.9908032.436097 2.1191968.436097 3.11 0 .4943143-.2454836 1.0940469-.0440809 1.34.45.2469243.4916536.050313 1.0904244-.44 1.34-1.5515949.7307697-3.3484051.7307697-4.9 0z" fill="#2c3e50"/>
            <circle id="Oval" cx="14" cy="47" fill="#f29c1f" r="6"/>
            <circle id="Oval" cx="46" cy="47" fill="#f29c1f" r="6"/>
            <circle id="Oval" cx="25" cy="12" fill="#ff5364" r="6"/>
            <circle id="Oval" cx="35" cy="12" fill="#ff5364" r="6"/>
            <path id="Shape" d="m30 12c.0018389 1.9388216-1.1173393 3.7039309-2.8717582 4.5291866-1.7544189.8252558-3.8277737.5618723-5.3201299-.6758295-1.4923562-1.2377017-2.1346564-3.2265761-1.6481119-5.1033571 2.2596901-.5450973 4.2685564-1.83852526 5.7-3.67 2.3913794.41753838 4.1373368 2.49244428 4.14 4.92z" fill="#fff"/>
            <circle id="Oval" cx="26" cy="12" fill="#35495e" r="2"/>
            <path id="Shape" d="m35 17c-2.5823562-.0156669-4.7279407-1.9953064-4.9509819-4.56806-.2230411-2.57275371 1.5498491-4.89209966 4.0909819-5.35194 1.4292827 1.83384106 3.4390501 3.1278492 5.7 3.67.3865557 1.4971235.0587081 3.0888638-.8880057 4.3113764s-2.4057719 1.9382435-3.9519943 1.9386236z" fill="#fff"/>
            <circle id="Oval" cx="34" cy="12" fill="#35495e" r="2"/>
            <path id="Shape" d="m26 10c.0358985 1.1045695-.8304305 2.0291015-1.935 2.065s-2.0291015-.8304305-2.065-1.935c1.0416354-.4900729 1.9972753-1.14517585 2.83-1.94.7095278.3236284 1.1662359 1.03015973 1.17 1.81z" fill="#fff"/>
            <path id="Shape" d="m34 10c-.0018177.9496649-.6712152 1.767106-1.6018765 1.9561465-.9306613.1890406-1.8659358-.3024514-2.2381235-1.1761465.2687699-1.11358484.9199708-2.09746445 1.84-2.78 1.1045695 0 2 .8954305 2 2z" fill="#fff"/>
        </g>
    </g>
</svg>