<svg id="Layer_1" viewBox="0 0 80 80" width="48">
    <path class="st0" d="M79.7 41.9l-6.8-10.3c-.3-.4-.6-.7-1-.7H61.2v-8.2c0-.7-.5-1.2-1.1-1.2H21.3c-.7 0-1.2.5-1.2 1.1v12.2h-7.8c-.7 0-1.2.6-1.2 1.2s.6 1.2 1.2 1.2H20v16.3c0 .7.5 1.2 1.1 1.2h5.7c.7 0 1.2-.6 1.2-1.2 0-.7-.6-1.2-1.2-1.2h-4.3v-15h6.9c.7 0 1.2-.6 1.2-1.2s-.5-1.1-1.2-1.1h-6.9V24.1h36.2v17.6H26c-.7 0-1.2.6-1.2 1.2 0 .7.6 1.2 1.2 1.2h32.8v8.3H38.4c0-.1-.1-.1-.1-.1-1-2.5-4-3.8-6.5-2.8h-.2a5.09 5.09 0 0 0 1.9 9.8c.6 0 1.2-.1 1.9-.3 1.6-.7 2.8-2.2 3.1-3.9h21.3c.7 0 1.2-.5 1.2-1.1V33.5h9.9l5.4 8.2h-8.1v-3.5h2.6c.7 0 1.2-.6 1.2-1.2s-.6-1.2-1.2-1.2h-3.9c-.7 0-1.2.5-1.2 1.1V43c0 .7.5 1.2 1.1 1.2h10.4v2.6H74c-.7 0-1.2.6-1.2 1.2 0 .7.6 1.2 1.2 1.2h3.4v3.1h-5.8c0-.1-.1-.1-.1-.1a5.1 5.1 0 0 0-6.3-2.9c-.1 0-.2 0-.3.1a4.5 4.5 0 0 0-2.7 2.7c-.5 1.3-.6 2.7-.1 3.9a4.96 4.96 0 0 0 9.2.2c.2-.4.3-.8.3-1.3h6.8c.7 0 1.2-.5 1.2-1.1V43c.2-.6.2-.8.1-1.1zM36.4 54.3c0 1.6-1.2 2.8-2.8 2.8-1.6 0-2.8-1.2-2.8-2.8 0-1.6 1.2-2.8 2.8-2.8 1.6-.1 2.8 1.1 2.8 2.8zm33.3-.1c0 1.6-1.2 2.8-2.8 2.8S64 55.8 64 54.2c0-1.6 1.2-2.8 2.8-2.8 1.6-.1 2.9 1.2 2.9 2.8z"></path>
    <path class="st0" d="M16 41.5H1.3c-.7 0-1.2.6-1.2 1.2 0 .7.6 1.3 1.2 1.3H16c.7 0 1.2-.5 1.2-1.1v-.1c0-.6-.5-1.1-1.2-1.3z"></path>
    <circle class="st0" cx="33.5" cy="54.2" r="1.4"></circle>
    <circle class="st0" cx="7" cy="36.1" r="1.4"></circle>
    <circle class="st0" cx="66.9" cy="54.2" r="1.3"></circle>
</svg>