<svg id="Layer_1" viewBox="0 0 80 80" width="48">
    <path class="st0" d="M67.2 77.1H57.1c-.9-3.9-4.6-6.5-8.6-6.1l-.8.1c-1.1-2.4-3.2-4-5.8-4.5v-9c0-2 1.3-3.7 3.3-4 .4.5.9.8 1.5.9h.6l4.5-.7c5.7-.8 10.2-5.3 11-11l.6-4.4c.2-1.2-.7-2.4-1.9-2.6h-.7l-4.4.7c-5.7.8-10.2 5.3-11 11L45 51c-1.1.2-2.1.6-2.9 1.2V40.4c0-.8-.6-1.4-1.4-1.4-.8 0-1.4.6-1.4 1.4v19.3a7.8 7.8 0 0 0-4.3-2l-.6-3.8c-.8-6-5.6-10.8-11.6-11.6l-4.8-.8c-1.2-.2-2.4.6-2.6 1.9v.7l.7 4.8c.9 6 5.6 10.7 11.7 11.6l4.7.7h.4c.7 0 1.4-.3 1.8-.9 2.7.4 4.6 2.6 4.6 5.3V66.5l-.8.2a8.3 8.3 0 0 0-5.3 4.4c-3.7-1-7.6.9-9.3 4.3-.3.5-.4 1.1-.6 1.7H12.8c-.8 0-1.4.6-1.4 1.4 0 .8.6 1.4 1.4 1.4h54.3c.8 0 1.4-.6 1.4-1.4 0-.8-.6-1.4-1.3-1.4zM56.9 39.4l3.8-.6-.6 3.8c-.7 4.5-4.2 8-8.7 8.7l-1.3.2 4.2-4.2c.5-.5.5-1.4 0-1.9s-1.4-.5-1.9 0L48 49.7l.3-1.7c.6-4.4 4.1-7.9 8.6-8.6zm-38.1 9.1l-.6-4.2 4.2.6c4.8.7 8.6 4.5 9.3 9.3l.3 2.1-4.4-4.3c-.5-.5-1.4-.5-1.9 0s-.5 1.4 0 1.9l4.2 4.2-1.7-.3c-4.9-.7-8.7-4.4-9.4-9.3zm7.7 28.1c1.2-2.6 4.4-3.8 7-2.5.7.3 1.5 0 1.8-.6 0-.1.1-.2.1-.3.6-2.8 3.4-4.6 6.2-4 2 .4 3.6 2 4 4 .2.7.9 1.2 1.7 1 .1 0 .1 0 .2-.1 2.7-1.1 5.8.2 6.8 2.9l-28-.1.2-.3zM40.1 29c5.6 0 10.1-4.5 10.1-10.1S45.7 8.8 40.1 8.8 30 13.3 30 18.9 34.5 29 40.1 29zm0-17.5c4.1 0 7.4 3.3 7.4 7.4 0 4.1-3.3 7.4-7.4 7.4s-7.4-3.3-7.4-7.4c.1-4.1 3.3-7.4 7.4-7.4z"></path>
    <path class="st0" d="M22.4 18.2l.5.7-.5.8c-1.4 1.9-.9 4.6 1 6l.4.3.8.4-.2.9c-.4 2.3 1.2 4.5 3.5 4.9h1.4l.3.9c.7 2.3 3 3.6 5.3 2.9l.5-.2.9-.4.6.7c1.6 1.8 4.2 1.9 6 .4l.4-.4.6-.7.9.4a4.26 4.26 0 0 0 5.7-2.9l.2-.9h.9c2.4-.1 4.2-2.1 4.1-4.4 0-.2 0-.4-.1-.6l-.2-.9.8-.4a4.2 4.2 0 0 0 1.6-5.8c-.1-.2-.2-.3-.3-.5l-.5-.8.5-.8c1.4-1.9.9-4.6-1-6l-.4-.3-.9-.4.2-.9c.4-2.3-1.2-4.5-3.5-4.9h-1.4l-.3-.9c-.6-2.2-3-3.6-5.2-3l-.5.2-.9.4-.6-.7a4.27 4.27 0 0 0-6-.4l-.4.4-.6.7-.9-.4a4.26 4.26 0 0 0-5.7 2.9l-.2.9h-.9c-2.4.1-4.2 2.1-4.1 4.4 0 .2 0 .4.1.6l.2.9-.7.7a4.26 4.26 0 0 0-1.7 5.8c.1.2.2.3.3.4zm2.7-3.9l.9-.5c1-.5 1.5-1.6 1.3-2.7l-.2-1v-.2c0-.4.1-.8.4-1.1.3-.3.6-.5 1-.5h1.1c1.1-.1 2-.8 2.3-1.9l.3-1c.2-.6.8-1.1 1.4-1.1.2 0 .4 0 .6.1l.9.4c1 .4 2.2.2 3-.7l.7-.8.2-.1c.6-.6 1.6-.5 2.1.1l.7.8c.7.8 1.9 1.1 2.9.6l1-.4h.2c.8-.2 1.7.2 1.9 1l.3 1c.3 1.1 1.3 1.8 2.4 1.8h1.2c.8.1 1.4.9 1.3 1.7l-.3 1.2c-.2 1.1.4 2.1 1.3 2.6l.9.5.2.1c.7.5.8 1.5.3 2.2l-.6.8c-.7.9-.7 2.1 0 3l.6.9.1.2c.4.7.2 1.7-.6 2.1l-.9.5c-1 .5-1.5 1.6-1.3 2.7l.2 1v.2c0 .4-.1.8-.4 1.1-.3.3-.6.5-1 .5h-1.1c-1.1.1-2 .8-2.3 1.9l-.3 1c-.2.6-.8 1.1-1.4 1.1-.2 0-.4 0-.6-.1l-.9-.4c-1-.5-2.2-.2-3 .7l-.7.8-.1.1c-.6.6-1.6.5-2.1-.1l-.7-.8a2.46 2.46 0 0 0-2.9-.7l-1 .4h-.2c-.8.2-1.7-.2-1.9-1l-.3-1c-.3-1-1.2-1.7-2.2-1.8h-1.2c-.8-.1-1.4-.9-1.3-1.7l.2-1.1c.2-1.1-.4-2.1-1.3-2.6l-.9-.5-.2-.1c-.7-.4-1-1.4-.5-2.1 0 0 0-.1.1-.1l.6-.8c.7-.9.7-2.1 0-3l-.6-.9-.1-.2c-.6-.7-.3-1.6.5-2.1z"></path>
</svg>