<svg id="Layer_1" viewBox="0 0 80 80" width="48">
    <path class="st0" d="M46.2 69.7c-1.4 1.4-8.8 1.4-10.2 0-.6-.5-1.4-.5-1.9.1-.5.5-.5 1.3 0 1.8 1.2 1.2 4.1 1.8 7.1 1.8s5.5-.6 7.1-1.8c.7-.6.9-1.2.5-1.9s-1.2-.9-1.9-.5c-.3.2-.7.5-.7.5z"></path>
    <path class="st0" d="M51.4 52.6c-2.2-9.2 2.1-19 2.1-19.1v-.2c.2-.6.1-1.3-.2-1.8-.4-.6-1-.9-1.7-.9H30c-.7 0-1.4.4-1.7 1.1-.3.5-.3 1.1-.2 1.6 0 .1.1.2.1.2 0 .1 4.3 9.8 2.2 19.1l-.2.8c-.3 1.3-.6 2.6-1 3.9-1.7 6.4-3.8 13.7-.3 18.4C31.1 78.6 35 80 41 80s10.1-1.4 12.3-4.4c3.2-4.5 1.4-11-.6-17.8.1 0-1-3.4-1.3-5.2zM51.1 74c-1.7 2.2-5 3.2-10.3 3.2-5 0-8.2-1-9.8-3.2-2.7-3.6-.9-10.2.7-16 .4-1.4.7-2.7 1-4l.2-.8c2-8.5-.8-17.1-1.9-19.9h19.6c-1.1 2.9-3.9 11.5-1.9 19.9.4 1.7.9 3.6 1.4 5.3 1.8 6.2 3.4 12.1 1 15.5zM67.3 26.9c-.7-2-1.9-3.7-3.4-5.1 1.3-1.4 2.3-3 2.9-4.8.2-.7-.1-1.4-.7-1.7-1.7-.8-3.7-1.2-5.6-1.2.1-2.1-.4-4.1-1.4-5.9-.3-.6-1.1-.9-1.7-.7-3.3 1.1-5.9 3.6-7.2 6.8-.7 2.1-.7 4.3 0 6.4a8.28 8.28 0 0 0-4.4 7.6c0 .8.6 1.4 1.4 1.4.8 0 1.4-.6 1.4-1.4 0-2 1-3.9 2.7-5a10.58 10.58 0 0 0 9.8 6.6c1.9 0 3.9-.5 5.6-1.4.6-.2.9-.9.6-1.6zm-14.7-8.7c-.1-1 .1-2 .5-3a8.3 8.3 0 0 1 4.3-4.7c.5 1.3.6 2.6.5 3.9-.6.2-1.2.4-1.7.6-1.5.8-2.7 1.9-3.6 3.2zm4.8-.6c.6-.3 1.3-.5 2-.6 1.4-.2 2.9-.1 4.3.3-.6 1.3-1.6 2.5-2.7 3.4-.5.4-1.1.7-1.7 1-1.7.6-3.6.5-5.2-.2.5-1.7 1.7-3.1 3.3-3.9zm.5 9c-1-.4-1.8-1-2.5-1.8a9.39 9.39 0 0 0 6.3-1.3c1.1.8 2 1.9 2.6 3.2-2.1.8-4.4.8-6.4-.1zM39.5 20.6v7.9c0 .8.6 1.4 1.4 1.4.8 0 1.4-.6 1.4-1.4v-7.9c3.8-.7 6.6-4 6.6-7.9V1.4c0-.8-.6-1.4-1.4-1.4-.3 0-.6.1-.9.3l-5.8 4.9-.2-.2L35 .3c-.6-.5-1.4-.4-1.9.2-.2.2-.3.6-.3.9v11.3c0 3.9 2.8 7.2 6.7 7.9zM35.6 4.4l3.2 2.7-3.2 2.7V4.4zm7.2 2.8l3.4-2.8v8.3c0 2.9-2.4 5.3-5.3 5.3-2.7 0-4.9-2-5.2-4.7l7.1-6.1zM22.8 14.9c-1 0-2 .3-2.7 1.1a3.9 3.9 0 0 0-.1 5.4 3.9 3.9 0 0 0 5.4.1 3.9 3.9 0 0 0 .1-5.4c-.8-.8-1.7-1.2-2.7-1.2zm.7 4.6c-.4.4-1 .5-1.5.1-.4-.4-.5-1-.1-1.5.2-.3.5-.4.9-.4.3 0 .5.1.7.3.3.5.3 1.1 0 1.5z"></path>
    <path class="st0" d="M28.6 24.6c.5-.1 1-.3 1.5-.5 1.4.9 2.2 2.6 2 4.3 0 .8.6 1.4 1.4 1.4.8 0 1.4-.6 1.4-1.4.2-2.4-.8-4.7-2.7-6.2.4-.6.6-1.3.8-2 .4-2.2-.6-4.4-2.6-5.6.3-3-1.9-5.7-4.9-6-1.5-.2-3 .3-4.2 1.3-2.8-1.2-6 .1-7.2 2.8-.6 1.4-.6 2.9 0 4.3-2 2.3-1.8 5.7.5 7.7 1.1 1 2.6 1.5 4.1 1.4 1.5 2.6 4.8 3.6 7.4 2.1 1.2-.7 2.1-2 2.5-3.6zm-2.7-1.1c-.1 1.5-1.4 2.5-2.9 2.4-1.1-.1-2-.8-2.4-1.8-.2-.7-1-1.2-1.7-.9-1.5.4-3-.5-3.3-2-.3-1 .1-2.2 1-2.8.6-.4.8-1.3.4-1.9-.8-1.3-.4-3 .8-3.8.9-.6 2-.6 2.9 0 .6.5 1.5.4 1.9-.2 1-1.2 2.7-1.3 3.9-.4.8.7 1.2 1.8.9 2.9-.2.7.1 1.5.8 1.7 1.4.5 2.1 2.1 1.6 3.6-.4 1-1.4 1.7-2.5 1.8-.8 0-1.4.6-1.4 1.4z"></path>
</svg>