<?xml version="1.0"?>
<svg xmlns="http://www.w3.org/2000/svg" 
	xmlns:xlink="http://www.w3.org/1999/xlink" version="1.1" id="Capa_1" x="0px" y="0px" viewBox="0 0 512 512" style="enable-background:new 0 0 512 512;" xml:space="preserve" width="512px" height="512px" class="">
	<g>
		<path style="fill:#FFFFFF00" d="M120.763,173.556h294.075c22.081,0,38.138,20.967,32.382,42.284l-35.901,132.966  c-3.951,14.634-17.225,24.798-32.382,24.798H152.666L120.763,173.556z" data-original="#4DBAF6" class="active-path" data-old_color="#4DBAF6"/>
		<g>
			<circle style="fill:#FFFFFF00" cx="379.194" cy="469.627" r="32.008" data-original="#41489D" class="" data-old_color="#41489D"/>
			<circle style="fill:#FFFFFF00" cx="215.593" cy="469.627" r="32.008" data-original="#41489D" class="" data-old_color="#41489D"/>
		</g>
		<path style="fill:#FF5D5D" d="M485.612,155.4H286.325v101.81c0,14.482,11.74,26.221,26.221,26.221h146.842  c14.482,0,26.221-11.74,26.221-26.221V155.4H485.612z" data-original="#FF5D5D" class=""/>
		<rect x="269.937" y="75.379" style="fill:#FE8F8D" width="232.058" height="80.02" data-original="#FE8F8D" class=""/>
		<polygon style="fill:#FFFFFF;" points="409.162,283.431 389.04,283.431 368.79,283.431 368.79,75.379 409.162,75.379 " data-original="#FFFFFF" class=""/>
		<path style="fill:#99BBFF;" d="M418.477,10.363L418.477,10.363c-17.953,0-32.508,14.555-32.508,32.508v32.508h32.508  c17.953,0,32.508-14.555,32.508-32.508l0,0C450.985,24.917,436.43,10.363,418.477,10.363z" data-original="#99BBFF" class=""/>
		<path style="fill:#C9F3FF" d="M353.461,10.363L353.461,10.363c17.953,0,32.508,14.555,32.508,32.508v32.508h-32.508  c-17.953,0-32.508-14.555-32.508-32.508l0,0C320.953,24.917,335.507,10.363,353.461,10.363z" data-original="#C9F3FF" class=""/>
		<path d="M431.63,427.619H175.285c-7.358,0-13.67-5.497-14.683-12.786l-4.331-31.225h79.66c5.523,0,10.002-4.479,10.002-10.003  c0-5.523-4.479-10.002-10.002-10.002h-82.434l-24.973-180.045h107.408c5.523,0,10.002-4.478,10.002-10.002  s-4.479-10.002-10.002-10.002H125.748l-5.185-37.383c-0.686-4.945-4.914-8.628-9.907-8.628H10.002C4.479,117.542,0,122.02,0,127.545  v39.62c0,5.524,4.479,10.002,10.002,10.002h48.885c5.523,0,10.002-4.478,10.002-10.002s-4.479-10.002-10.002-10.002H20.005v-19.615  h81.939l38.844,280.035c2.378,17.126,17.208,30.041,34.498,30.041h4.541c-3.955,6.405-6.244,13.941-6.244,22.005  c0,23.165,18.846,42.01,42.01,42.01s42.01-18.846,42.01-42.01c0-8.064-2.289-15.601-6.244-22.005h92.062  c-3.955,6.405-6.244,13.941-6.244,22.005c0,23.165,18.846,42.01,42.01,42.01s42.01-18.846,42.01-42.01  c0-8.064-2.289-15.601-6.244-22.005h16.673c5.523,0,10.003-4.479,10.003-10.002S437.154,427.619,431.63,427.619z M237.599,469.63  c0,12.134-9.871,22.005-22.005,22.005s-22.005-9.871-22.005-22.005c0-12.134,9.871-22.005,22.005-22.005  S237.599,457.496,237.599,469.63z M401.196,469.63c0,12.134-9.871,22.005-22.005,22.005s-22.005-9.871-22.005-22.005  c0-12.134,9.871-22.005,22.005-22.005S401.196,457.496,401.196,469.63z" data-original="#000000" class="" style="fill:#000000"/>
		<path d="M289.014,380.68c1.86-1.859,2.932-4.44,2.932-7.082c0-2.631-1.07-5.2-2.932-7.062c-1.859-1.87-4.44-2.941-7.071-2.941  c-2.631,0-5.211,1.07-7.072,2.941c-1.86,1.86-2.931,4.431-2.931,7.062c0,2.642,1.069,5.222,2.931,7.082  c1.86,1.86,4.441,2.932,7.072,2.932C284.574,383.612,287.154,382.541,289.014,380.68z" data-original="#000000" class="" style="fill:#000000"/>
		<path d="M378.937,383.608c19.635,0,36.922-13.238,42.038-32.194l5.164-19.124c1.439-5.333-1.716-10.824-7.049-12.265  c-5.332-1.438-10.825,1.716-12.265,7.049l-5.164,19.125c-2.767,10.248-12.111,17.403-22.726,17.403h-50.983  c-5.523,0-10.003,4.479-10.003,10.002c0,5.523,4.479,10.003,10.003,10.003h50.984V383.608z" data-original="#000000" class="" style="fill:#000000"/>
		<path d="M501.998,65.376h-47.481c4.094-6.532,6.471-14.245,6.471-22.506c0-23.441-19.07-42.511-42.511-42.511  c-13.03,0-24.704,5.898-32.508,15.159c-7.804-9.26-19.478-15.159-32.508-15.159c-23.441,0-42.511,19.07-42.511,42.511  c0,8.261,2.377,15.974,6.471,22.506H269.94c-5.523,0-10.003,4.478-10.003,10.002v80.02c0,5.524,4.479,10.002,10.003,10.002h6.001  v55.916H230.93c-5.523,0-10.002,4.478-10.002,10.002s4.479,10.002,10.002,10.002h45.011v22.68c0,3.297,0.553,6.465,1.557,9.426  H172.916c-5.523,0-10.002,4.479-10.002,10.002s4.479,10.003,10.002,10.003h132.457h161.192c16.229,0,29.431-13.202,29.431-29.431  v-98.6h6.001c5.523,0,10.002-4.478,10.002-10.002v-80.02C512,69.854,507.522,65.376,501.998,65.376z M491.995,145.396h-73.193  V85.381h73.193V145.396z M378.792,85.381h20.005v188.047h-20.005V85.381z M418.477,20.365c12.409,0,22.506,10.096,22.506,22.506  s-10.097,22.506-22.506,22.506h-22.506V42.871C395.971,30.462,406.068,20.365,418.477,20.365z M330.955,42.871  c0-12.41,10.096-22.506,22.506-22.506s22.506,10.096,22.506,22.506v22.506h-22.506C341.052,65.376,330.955,55.281,330.955,42.871z   M279.942,85.381h78.845v60.015h-78.845V85.381z M295.946,264.003v-98.601h62.841v108.027h-53.414  C300.176,273.428,295.946,269.2,295.946,264.003z M475.991,264.003c0,5.197-4.229,9.426-9.426,9.426h-47.763V165.402h57.189  L475.991,264.003L475.991,264.003z" data-original="#000000" class="" style="fill:#000000"/>
		<path d="M185.988,224.252c-1.859,1.86-2.931,4.431-2.931,7.072c0,2.631,1.07,5.211,2.931,7.072c1.86,1.86,4.441,2.931,7.072,2.931  c2.631,0,5.211-1.07,7.072-2.931c1.859-1.86,2.931-4.441,2.931-7.072c0-2.641-1.07-5.211-2.931-7.072  c-1.86-1.87-4.441-2.931-7.072-2.931C190.429,221.321,187.85,222.381,185.988,224.252z" data-original="#000000" class="" style="fill:#000000"/>
	</g>
</svg>
