<svg id="Capa_1" enable-background="new 0 0 512 512" height="512" viewBox="0 0 512 512" width="512" 
    xmlns="http://www.w3.org/2000/svg">
    <g>
        <g>
            <path d="m301 491h165c8.284 0 15-6.716 15-15v-200c0-8.284-6.716-15-15-15h-165-90-165c-8.284 0-15 6.716-15 15v200c0 8.284 6.716 15 15 15h165l45-20z" fill="#ff405c"/>
        </g>
        <path d="m466 261h-165-45v210l45 20h165c8.284 0 15-6.716 15-15v-200c0-8.284-6.716-15-15-15z" fill="#d0004f"/>
        <g>
            <path d="m497 291h-482c-8.284 0-15-6.716-15-15v-120c0-8.284 6.716-15 15-15h482c8.284 0 15 6.716 15 15v120c0 8.284-6.716 15-15 15z" fill="#d0004f"/>
        </g>
        <path d="m497 140.573h-241v150h241c8.284 0 15-6.716 15-15v-120c0-8.284-6.716-15-15-15z" fill="#93293b"/>
        <path d="m301 491h-90v-360h90z" fill="#ffb454"/>
        <path d="m256 131h45v360h-45z" fill="#ff8e00"/>
        <path d="m381 21h-45c-44.183 0-80 35.817-80 80 0-44.183-35.817-80-80-80h-45c-8.284 0-15 6.716-15 15v25c0 44.183 35.817 80 80 80h60 60c44.183 0 80-35.817 80-80v-25c0-8.284-6.716-15-15-15z" fill="#ffe278"/>
        <path d="m316 141c44.183 0 80-35.817 80-80v-25c0-8.284-6.716-15-15-15h-45c-44.183 0-80 35.817-80 80v40z" fill="#ffb454"/>
    </g>
</svg>